{"glyphs":{":":{"x_min":0,"x_max":260,"ha":260,"o":"m 65 378 q 65 412 90 437 q 115 462 149 462 q 183 462 208 437 q 233 412 233 378 q 233 344 208 319 q 183 294 149 294 q 115 294 90 319 q 65 344 65 378 z m 11 76 q 11 110 36 135 q 61 160 95 160 q 129 160 154 135 q 179 110 179 76 q 179 42 154 17 q 129 -8 95 -8 q 61 -8 36 17 q 11 42 11 76 z"},"$":{"x_min":0,"x_max":490,"ha":490,"o":"m 473 594 l 459 495 q 399 535 330 551 l 305 373 q 377 332 410 290 q 444 248 444 189 q 444 115 392 58 q 340 1 251 -9 l 235 -123 l 157 -123 l 173 -5 q 91 8 13 53 l 31 154 q 110 103 187 92 l 214 286 q 141 326 108 368 q 75 411 75 468 q 75 539 125 591 q 175 643 266 654 l 271 691 l 349 691 l 343 648 q 417 631 473 594 z m 233 417 l 252 554 q 186 534 186 483 q 186 448 233 417 z m 286 242 l 266 95 q 332 119 332 174 q 332 216 286 242 z"},"?":{"x_min":0,"x_max":323,"ha":323,"o":"m 178 216 l 72 216 q 72 256 90 302 q 108 349 157 404 q 207 460 216 479 q 225 497 225 512 q 225 533 209 547 q 193 560 168 560 q 119 560 38 512 l 57 644 q 131 691 201 691 q 271 691 318 645 q 365 598 365 530 q 365 491 349 451 q 333 412 274 357 q 215 302 199 273 q 183 244 178 216 z m 37 76 q 37 110 62 135 q 87 160 121 160 q 155 160 180 135 q 205 110 205 76 q 205 42 180 17 q 155 -8 121 -8 q 87 -8 62 17 q 37 42 37 76 z"},"<":{"x_min":0,"x_max":584,"ha":584,"o":"m 60 295 l 60 415 l 551 628 l 551 491 l 208 355 l 551 219 l 551 82 z"},"'":{"x_min":0,"x_max":240,"ha":240,"o":"m 194 461 l 107 461 l 83 595 l 83 716 l 218 716 l 218 595 z"},"=":{"x_min":0,"x_max":584,"ha":584,"o":"m 55 398 l 55 526 l 555 526 l 555 398 z m 55 180 l 55 308 l 555 308 l 555 180 z"},"a":{"x_min":0,"x_max":552,"ha":552,"o":"m 521 447 l 458 0 l 323 0 l 329 42 q 266 -9 198 -9 q 129 -9 84 46 q 39 101 39 186 q 39 308 124 385 q 209 462 368 462 q 447 462 521 447 z m 342 132 l 372 348 q 357 350 343 350 q 262 350 220 301 q 179 251 179 179 q 179 138 197 115 q 214 92 245 92 q 294 92 342 132 z"},"L":{"x_min":0,"x_max":531,"ha":531,"o":"m 281 682 l 201 114 l 511 114 l 495 0 l 40 0 l 136 682 z"},"3":{"x_min":0,"x_max":531,"ha":531,"o":"m 103 519 l 122 654 q 206 691 284 691 q 375 691 433 641 q 490 591 490 513 q 490 387 376 348 q 455 307 455 205 q 455 110 384 51 q 313 -9 201 -9 q 119 -9 29 34 l 47 164 q 134 118 197 118 q 243 118 275 145 q 307 171 307 209 q 307 247 277 270 q 247 293 196 293 q 172 293 144 288 l 162 418 q 209 407 239 407 q 286 407 317 431 q 348 455 348 491 q 348 523 325 543 q 301 564 264 564 q 204 564 103 519 z"},";":{"x_min":0,"x_max":260,"ha":260,"o":"m 65 378 q 65 412 90 437 q 115 462 149 462 q 183 462 208 437 q 233 412 233 378 q 233 344 208 319 q 183 294 149 294 q 115 294 90 319 q 65 344 65 378 z m -45 -145 l -30 -84 q 34 -69 56 -12 q 8 15 8 64 q 8 98 32 121 q 56 144 92 144 q 131 144 160 113 q 188 83 188 39 q 188 -34 123 -90 q 58 -145 -45 -145 z"},"J":{"x_min":0,"x_max":302,"ha":302,"o":"m 288 682 l 187 -35 q 160 -230 -30 -230 q -54 -230 -82 -227 l -66 -114 q -12 -114 13 -90 q 38 -65 46 -6 l 143 682 z"},"V":{"x_min":0,"x_max":552,"ha":552,"o":"m 609 682 l 276 -9 l 205 -9 l 63 682 l 201 682 l 277 281 l 460 682 z"},"\"":{"x_min":0,"x_max":479,"ha":479,"o":"m 437 461 l 350 461 l 326 595 l 326 716 l 461 716 l 461 595 z m 88 716 l 223 716 l 223 595 l 199 461 l 112 461 l 88 595 z"},"7":{"x_min":0,"x_max":531,"ha":531,"o":"m 520 682 l 251 0 l 102 0 l 317 543 l 93 543 l 120 682 z"},"S":{"x_min":0,"x_max":521,"ha":521,"o":"m 509 637 l 489 517 q 452 543 404 560 q 356 577 320 577 q 279 577 251 556 q 224 535 224 502 q 224 482 240 463 q 255 443 337 394 q 418 345 447 298 q 475 251 475 200 q 475 110 413 51 q 350 -9 244 -9 q 110 -9 12 56 l 34 175 q 78 144 132 124 q 186 105 227 105 q 271 105 298 126 q 325 146 325 180 q 325 204 308 228 q 291 251 208 302 q 126 353 100 396 q 74 439 74 485 q 74 573 143 632 q 211 691 314 691 q 417 691 509 637 z"},"}":{"x_min":0,"x_max":385,"ha":385,"o":"m 356 200 q 302 200 275 167 q 249 134 249 51 l 249 -28 q 249 -122 206 -166 q 163 -210 66 -210 l 22 -210 l 22 -93 l 28 -93 q 94 -93 109 -76 q 123 -59 123 18 q 123 117 138 167 q 152 218 208 257 q 152 296 138 347 q 123 397 123 496 q 123 573 109 590 q 94 607 28 607 l 22 607 l 22 724 l 66 724 q 163 724 206 680 q 249 636 249 542 l 249 463 q 249 380 275 347 q 302 314 356 314 z"},"Z":{"x_min":0,"x_max":635,"ha":635,"o":"m 699 682 l 244 114 l 583 114 l 567 0 l -31 0 l 425 568 l 94 568 l 111 682 z"},"x":{"x_min":0,"x_max":531,"ha":531,"o":"m 552 454 l 354 222 l 488 0 l 340 0 l 266 142 l 149 0 l -21 0 l 194 238 l 64 454 l 213 454 l 281 321 l 386 454 z"},")":{"x_min":0,"x_max":344,"ha":344,"o":"m 65 -230 l -37 -230 q 54 -115 105 40 q 156 195 156 349 q 156 537 92 691 l 195 691 q 296 473 296 308 q 296 43 65 -230 z"},"&":{"x_min":0,"x_max":729,"ha":729,"o":"m 556 306 l 688 306 q 651 212 575 134 q 615 117 664 117 l 706 117 l 660 0 q 637 -9 605 -9 q 520 -9 449 45 q 356 -9 256 -9 q 152 -9 83 50 q 15 109 15 198 q 15 286 80 347 q 146 408 271 426 q 270 441 270 456 q 270 566 331 628 q 393 691 494 691 q 568 691 615 650 q 662 609 662 546 q 662 395 420 353 q 443 263 483 205 q 533 248 556 306 z m 404 449 q 477 463 515 486 q 554 509 554 548 q 554 574 535 591 q 516 608 486 608 q 445 608 421 579 q 398 551 398 500 q 398 472 404 449 z m 288 324 q 165 301 165 210 q 165 162 198 130 q 231 99 282 99 q 324 99 371 122 q 310 220 288 324 z"},"_":{"x_min":0,"x_max":500,"ha":500,"o":"m -6 -75 l 506 -75 l 506 -125 l -6 -125 z"},"v":{"x_min":0,"x_max":458,"ha":458,"o":"m 481 454 l 235 -8 l 143 -8 l 27 454 l 158 454 l 217 202 l 338 454 z"},"O":{"x_min":0,"x_max":833,"ha":833,"o":"m 461 691 q 609 691 703 604 q 797 517 797 380 q 797 208 687 99 q 576 -9 404 -9 q 254 -9 157 81 q 60 170 60 308 q 60 473 174 582 q 288 691 461 691 z m 405 117 q 506 117 576 191 q 647 265 647 370 q 647 455 592 510 q 536 565 451 565 q 353 565 281 491 q 210 417 210 315 q 210 228 264 172 q 319 117 405 117 z"},"(":{"x_min":0,"x_max":344,"ha":344,"o":"m 275 691 l 377 691 q 286 576 235 421 q 184 266 184 112 q 184 -76 248 -230 l 145 -230 q 44 -12 44 153 q 44 418 275 691 z"},"C":{"x_min":0,"x_max":688,"ha":688,"o":"m 688 666 l 664 540 q 583 565 499 565 q 361 565 284 486 q 208 407 208 300 q 208 216 261 167 q 313 117 403 117 q 513 117 651 197 l 630 45 q 508 -9 390 -9 q 242 -9 150 78 q 58 164 58 303 q 58 474 182 582 q 306 691 503 691 q 589 691 688 666 z"},"W":{"x_min":0,"x_max":948,"ha":948,"o":"m 998 682 l 662 -9 l 603 -9 l 493 413 l 263 -9 l 203 -9 l 64 682 l 201 682 l 275 281 l 492 682 l 563 682 l 667 281 l 851 682 z"},"A":{"x_min":0,"x_max":625,"ha":625,"o":"m 461 691 l 581 0 l 432 0 l 411 149 l 199 149 l 133 0 l -27 0 l 307 691 z m 241 246 l 399 246 l 363 548 z"},"f":{"x_min":0,"x_max":333,"ha":333,"o":"m 456 668 l 441 559 q 398 581 365 581 q 276 581 267 454 l 354 454 l 340 354 l 252 354 l 174 -199 l 39 -199 l 117 354 l 25 354 l 39 454 l 132 454 q 145 570 203 631 q 260 691 347 691 q 399 691 456 668 z"},"Q":{"x_min":0,"x_max":833,"ha":833,"o":"m 693 -94 l 578 -208 q 530 -197 484 -175 q 440 -154 398 -124 q 358 -95 321 -58 l 253 19 q 213 40 189 56 q 152 82 126 111 q 95 147 79 192 q 60 244 60 308 q 60 473 175 582 q 289 691 462 691 q 613 691 705 604 q 797 518 797 377 q 797 237 712 130 q 628 24 473 -1 q 502 -37 551 -62 q 600 -86 640 -86 q 658 -86 672 -81 z m 404 117 q 506 117 577 191 q 647 266 647 368 q 647 451 593 508 q 540 565 452 565 q 351 565 281 491 q 210 418 210 312 q 210 226 264 171 q 318 117 404 117 z"},"w":{"x_min":0,"x_max":729,"ha":729,"o":"m 757 454 l 499 -8 l 412 -8 l 363 227 l 232 -8 l 147 -8 l 33 454 l 164 454 l 218 191 l 354 454 l 435 454 l 484 191 l 615 454 z"},"-":{"x_min":0,"x_max":344,"ha":344,"o":"m 338 294 l 318 156 l 6 156 l 25 294 z"},"E":{"x_min":0,"x_max":583,"ha":583,"o":"m 564 682 l 548 568 l 267 568 l 244 407 l 491 407 l 475 293 l 228 293 l 203 114 l 557 114 l 541 0 l 42 0 l 138 682 z"},"s":{"x_min":0,"x_max":375,"ha":375,"o":"m 359 421 l 348 314 q 313 332 275 342 q 237 352 217 352 q 187 352 187 332 q 187 312 241 272 q 302 226 320 195 q 338 165 338 134 q 338 72 290 32 q 243 -8 168 -8 q 90 -8 11 33 l 30 134 q 113 102 154 102 q 198 102 198 127 q 198 148 139 193 q 80 237 63 264 q 46 291 46 315 q 46 380 94 421 q 141 462 216 462 q 287 462 359 421 z"},">":{"x_min":0,"x_max":584,"ha":584,"o":"m 550 295 l 59 82 l 59 219 l 402 355 l 59 491 l 59 628 l 550 415 z"},"l":{"x_min":0,"x_max":260,"ha":260,"o":"m 263 682 l 167 0 l 32 0 l 128 682 z"},"8":{"x_min":0,"x_max":531,"ha":531,"o":"m 379 352 q 477 307 477 200 q 477 113 411 52 q 345 -9 251 -9 q 159 -9 99 45 q 40 98 40 181 q 40 241 76 297 q 112 353 178 368 q 111 416 111 497 q 111 578 173 634 q 235 691 323 691 q 401 691 453 644 q 505 597 505 526 q 505 410 379 352 z m 295 418 q 326 418 344 445 q 363 473 363 511 q 363 534 349 549 q 335 564 313 564 q 284 564 264 535 q 245 506 245 468 q 245 446 259 432 q 272 418 295 418 z m 249 118 q 285 118 310 147 q 335 176 335 219 q 335 251 316 271 q 297 291 267 291 q 232 291 207 261 q 182 232 182 190 q 182 158 201 138 q 219 118 249 118 z"},"\\":{"x_min":0,"x_max":281,"ha":281,"o":"m 290 -9 l 189 -9 l 18 691 l 121 691 z"},"e":{"x_min":0,"x_max":510,"ha":510,"o":"m 468 208 l 171 208 q 166 154 195 123 q 225 91 275 91 q 331 91 443 137 l 419 24 q 331 -9 261 -9 q 158 -9 97 51 q 35 111 35 212 q 35 316 107 389 q 179 462 281 462 q 369 462 422 409 q 475 357 475 271 q 475 241 468 208 z m 184 286 l 343 286 q 344 294 344 303 q 344 333 326 351 q 308 369 278 369 q 213 369 184 286 z"},"b":{"x_min":0,"x_max":542,"ha":542,"o":"m 261 682 l 222 408 q 284 462 345 462 q 417 462 466 404 q 514 346 514 258 q 514 145 437 68 q 359 -9 222 -9 q 115 -9 31 6 l 126 682 z m 207 298 l 179 104 q 203 101 225 101 q 373 101 373 252 q 373 298 352 325 q 331 352 296 352 q 250 352 207 298 z"},"%":{"x_min":0,"x_max":719,"ha":719,"o":"m 198 691 q 265 691 312 644 q 359 597 359 530 q 359 464 312 417 q 264 369 198 369 q 132 369 84 417 q 37 464 37 530 q 37 597 84 644 q 131 691 198 691 z m 198 455 q 228 455 248 477 q 269 499 269 530 q 269 561 248 583 q 227 605 198 605 q 168 605 147 583 q 127 562 127 530 q 127 500 148 478 q 169 455 198 455 z m 651 691 l 174 -8 l 91 -8 l 571 691 z m 546 313 q 613 313 660 266 q 707 219 707 152 q 707 86 660 39 q 612 -9 546 -9 q 480 -9 432 39 q 385 86 385 152 q 385 219 432 266 q 479 313 546 313 z m 546 77 q 576 77 596 99 q 617 121 617 152 q 617 183 596 205 q 575 227 546 227 q 516 227 496 206 q 475 184 475 152 q 475 122 496 100 q 517 77 546 77 z"},"m":{"x_min":0,"x_max":823,"ha":823,"o":"m 227 454 l 219 396 l 221 394 q 292 462 363 462 q 457 462 478 379 q 564 462 643 462 q 706 462 741 423 q 777 384 777 318 q 777 302 774 282 l 735 0 l 600 0 l 637 261 q 640 282 640 298 q 640 362 601 362 q 553 362 491 291 l 450 0 l 315 0 l 350 260 q 353 284 353 301 q 353 362 311 362 q 268 362 204 291 l 163 0 l 28 0 l 92 454 z"},"#":{"x_min":0,"x_max":584,"ha":584,"o":"m -6 503 l 139 503 l 177 682 l 290 682 l 252 503 l 406 503 l 444 682 l 555 682 l 517 503 l 591 503 l 591 392 l 495 392 l 468 261 l 591 261 l 591 150 l 444 150 l 406 -29 l 295 -29 l 332 150 l 179 150 l 142 -29 l 28 -29 l 66 150 l -6 150 l -6 261 l 89 261 l 116 392 l -6 392 z m 229 392 l 202 261 l 355 261 l 382 392 z"},",":{"x_min":0,"x_max":260,"ha":260,"o":"m -45 -145 l -30 -84 q 34 -69 56 -12 q 8 15 8 64 q 8 98 32 121 q 56 144 92 144 q 131 144 160 113 q 188 83 188 39 q 188 -34 123 -90 q 58 -145 -45 -145 z"},"n":{"x_min":0,"x_max":552,"ha":552,"o":"m 229 454 l 221 403 q 297 462 376 462 q 436 462 467 425 q 499 388 499 322 q 499 302 496 281 l 457 0 l 322 0 l 360 271 q 362 283 362 294 q 362 362 320 362 q 271 362 206 292 l 165 0 l 30 0 l 94 454 z"},"h":{"x_min":0,"x_max":552,"ha":552,"o":"m 261 682 l 221 402 q 293 462 373 462 q 432 462 465 427 q 499 392 499 330 q 499 312 496 294 l 455 0 l 320 0 l 361 291 q 364 317 353 334 q 341 352 319 352 q 272 352 206 295 l 165 0 l 30 0 l 126 682 z"},"z":{"x_min":0,"x_max":458,"ha":458,"o":"m 457 454 l 234 112 l 431 112 l 414 0 l 1 0 l 232 342 l 48 342 l 64 454 z"},"B":{"x_min":0,"x_max":635,"ha":635,"o":"m 140 682 l 357 682 q 468 682 526 637 q 584 593 584 517 q 584 416 485 365 q 544 347 578 301 q 612 255 612 198 q 612 120 549 60 q 486 0 378 0 l 44 0 z m 270 568 l 247 418 l 345 418 q 392 418 417 440 q 442 462 442 499 q 442 568 346 568 z m 232 304 l 203 114 l 341 114 q 400 114 431 141 q 462 167 462 214 q 462 257 428 281 q 394 304 335 304 z"},"K":{"x_min":0,"x_max":646,"ha":646,"o":"m 704 682 l 398 374 l 663 0 l 495 0 l 238 362 l 187 0 l 42 0 l 138 682 l 283 682 l 242 391 l 532 682 z"},"R":{"x_min":0,"x_max":646,"ha":646,"o":"m 138 682 l 372 682 q 481 682 542 621 q 602 561 602 477 q 602 410 563 361 q 523 313 450 299 l 450 297 q 491 281 522 217 l 627 0 l 467 0 l 402 138 q 358 230 334 253 q 311 276 257 276 l 226 276 l 188 0 l 43 0 z m 267 568 l 241 382 l 313 382 q 379 382 416 410 q 452 438 452 481 q 452 521 422 545 q 392 568 338 568 z"},"T":{"x_min":0,"x_max":619,"ha":619,"o":"m 666 682 l 650 568 l 428 568 l 348 0 l 203 0 l 283 568 l 67 568 l 83 682 z"},"P":{"x_min":0,"x_max":583,"ha":583,"o":"m 141 682 l 364 682 q 464 682 526 628 q 589 573 589 479 q 589 371 522 314 q 455 257 342 257 l 227 257 l 191 0 l 46 0 z m 271 574 l 242 364 l 303 364 q 369 364 404 393 q 439 422 439 473 q 439 520 405 547 q 370 574 306 574 z"},"|":{"x_min":0,"x_max":281,"ha":281,"o":"m 102 -221 l 102 682 l 211 682 l 211 -221 z"},"t":{"x_min":0,"x_max":365,"ha":365,"o":"m 277 550 l 258 454 l 358 454 l 340 354 l 240 354 l 214 207 q 210 188 210 172 q 210 112 251 112 q 275 112 329 139 l 329 20 q 270 -9 213 -9 q 147 -9 109 33 q 71 75 71 141 q 71 162 75 181 l 107 354 l 15 354 l 32 454 l 124 454 l 140 550 z"},"M":{"x_min":0,"x_max":948,"ha":948,"o":"m 862 682 l 894 0 l 754 0 l 731 461 l 478 0 l 409 0 l 287 474 l 133 0 l -13 0 l 209 682 l 368 682 l 478 253 l 708 682 z"},"g":{"x_min":0,"x_max":490,"ha":490,"o":"m 506 454 l 493 354 l 420 354 q 437 318 437 282 q 437 212 386 164 q 334 116 247 116 q 203 116 184 112 q 165 108 165 92 q 165 83 177 76 q 189 70 277 56 q 364 42 401 6 q 439 -29 439 -82 q 439 -230 205 -230 q 98 -230 43 -200 q -11 -169 -11 -118 q -11 -51 101 -16 q 38 15 38 68 q 38 131 130 152 q 51 198 51 283 q 51 352 107 403 q 163 454 252 454 z m 238 200 q 312 200 312 298 q 312 328 295 345 q 278 363 249 363 q 175 363 175 263 q 175 200 238 200 z m 313 -100 q 313 -68 249 -56 l 190 -43 q 171 -43 139 -56 q 107 -69 107 -96 q 107 -143 207 -143 q 263 -143 288 -133 q 313 -124 313 -100 z"},"j":{"x_min":0,"x_max":260,"ha":260,"o":"m 102 580 q 102 609 123 629 q 143 650 172 650 q 201 650 222 629 q 242 609 242 580 q 242 551 222 530 q 201 510 172 510 q 143 510 123 530 q 102 551 102 580 z m 225 454 l 162 8 q 148 -88 132 -131 q 116 -173 73 -201 q 29 -230 -28 -230 q -53 -230 -76 -224 l -60 -116 q -22 -116 -4 -98 q 15 -80 23 -21 l 90 454 z"},"i":{"x_min":0,"x_max":260,"ha":260,"o":"m 106 580 q 106 609 126 629 q 147 650 176 650 q 205 650 226 629 q 246 609 246 580 q 246 551 226 530 q 205 510 176 510 q 147 510 126 530 q 106 551 106 580 z m 228 454 l 164 0 l 29 0 l 93 454 z"},"y":{"x_min":0,"x_max":490,"ha":490,"o":"m 510 454 l 180 -230 l 38 -230 l 170 42 l 25 454 l 160 454 l 249 189 l 369 454 z"},"@":{"x_min":0,"x_max":979,"ha":979,"o":"m 878 9 l 982 9 q 928 -98 817 -154 q 707 -210 553 -210 q 335 -210 188 -94 q 40 22 40 230 q 40 436 172 582 q 304 728 541 728 q 726 728 841 624 q 956 521 956 355 q 956 214 863 107 q 770 0 633 0 q 557 0 544 56 q 488 0 412 0 q 329 0 277 57 q 224 114 224 205 q 224 327 298 428 q 372 529 486 529 q 575 529 617 463 l 629 517 l 758 517 l 680 147 q 677 134 677 125 q 677 100 696 100 q 742 100 805 178 q 868 257 868 357 q 868 478 781 559 q 694 640 533 640 q 341 640 235 521 q 128 402 128 231 q 128 66 243 -28 q 357 -122 541 -122 q 775 -122 878 9 z m 499 441 q 433 441 392 369 q 350 296 350 203 q 350 151 374 120 q 398 89 438 89 q 508 89 549 168 q 590 248 590 327 q 590 379 565 410 q 540 441 499 441 z"},".":{"x_min":0,"x_max":260,"ha":260,"o":"m 11 76 q 11 110 36 135 q 61 160 95 160 q 129 160 154 135 q 179 110 179 76 q 179 42 154 17 q 129 -8 95 -8 q 61 -8 36 17 q 11 42 11 76 z"},"p":{"x_min":0,"x_max":583,"ha":583,"o":"m 277 542 l 265 454 q 305 462 348 462 q 437 462 492 407 q 547 353 547 264 q 547 150 464 71 q 381 -9 262 -9 q 235 -9 201 0 l 169 -230 l 34 -230 l 106 285 q 66 255 33 211 q 15 188 4 188 q -4 188 -4 197 q -4 217 27 271 q 57 325 119 376 l 142 542 z m 251 356 l 217 110 q 236 101 258 101 q 329 101 368 148 q 407 195 407 261 q 407 362 303 362 q 279 362 251 356 z"},"X":{"x_min":0,"x_max":677,"ha":677,"o":"m 742 682 l 440 335 l 642 0 l 483 0 l 346 227 l 143 0 l -37 0 l 272 350 l 72 682 l 231 682 l 367 458 l 562 682 z"},"*":{"x_min":0,"x_max":479,"ha":479,"o":"m 329 301 q 331 292 331 285 q 331 264 302 264 l 241 264 q 210 264 210 284 q 210 292 213 301 l 257 443 l 246 454 l 146 352 q 124 330 114 330 q 105 330 96 346 l 68 399 q 62 411 62 420 q 62 438 83 443 l 235 476 l 235 478 l 83 512 q 62 518 62 535 q 62 543 66 552 l 96 609 q 105 626 113 626 q 124 626 146 603 l 246 501 l 257 512 l 213 654 q 210 663 210 670 q 210 691 241 691 l 299 691 q 332 691 332 670 q 332 664 329 654 l 284 512 l 296 501 l 396 603 q 418 626 427 626 q 435 626 445 606 l 470 561 q 480 543 480 533 q 480 517 458 512 l 306 478 l 306 476 l 458 443 q 480 438 480 420 q 480 410 472 397 l 446 350 q 435 329 426 329 q 418 329 403 344 l 296 454 l 284 443 z"},"Y":{"x_min":0,"x_max":563,"ha":563,"o":"m 618 682 l 361 286 l 321 0 l 176 0 l 216 286 l 72 682 l 217 682 l 305 419 l 463 682 z"},"c":{"x_min":0,"x_max":469,"ha":469,"o":"m 451 446 l 434 324 q 398 337 384 341 q 370 344 336 344 q 268 344 221 304 q 175 264 175 205 q 175 156 206 128 q 237 101 293 101 q 348 101 422 131 l 406 8 q 337 -9 266 -9 q 164 -9 100 52 q 35 114 35 210 q 35 316 119 389 q 203 462 326 462 q 397 462 451 446 z"},"!":{"x_min":0,"x_max":260,"ha":260,"o":"m 159 213 l 79 213 l 96 517 q 101 616 122 654 q 144 691 185 691 q 215 691 232 671 q 249 652 249 618 q 249 574 231 502 z m 17 76 q 17 110 42 135 q 67 160 101 160 q 135 160 160 135 q 185 110 185 76 q 185 42 160 17 q 135 -8 101 -8 q 67 -8 42 17 q 17 42 17 76 z"},"/":{"x_min":0,"x_max":281,"ha":281,"o":"m 18 -9 l 187 691 l 290 691 l 119 -9 z"},"[":{"x_min":0,"x_max":375,"ha":375,"o":"m 418 682 l 402 568 l 272 568 l 178 -107 l 307 -107 l 291 -221 l 31 -221 l 158 682 z"},"6":{"x_min":0,"x_max":531,"ha":531,"o":"m 449 682 l 277 416 l 279 414 q 309 426 345 426 q 412 426 455 377 q 498 328 498 250 q 498 141 427 66 q 355 -9 252 -9 q 159 -9 101 50 q 44 108 44 204 q 44 260 64 314 q 83 369 136 448 l 290 682 z m 255 118 q 295 118 325 155 q 356 191 356 240 q 356 271 338 291 q 320 310 291 310 q 249 310 217 275 q 186 241 186 193 q 186 160 205 139 q 225 118 255 118 z"},"r":{"x_min":0,"x_max":365,"ha":365,"o":"m 222 454 l 212 389 l 214 387 q 274 462 324 462 q 362 462 405 412 l 342 287 q 309 336 278 336 q 251 336 224 308 q 197 280 196 270 l 158 0 l 23 0 l 87 454 z"},"2":{"x_min":0,"x_max":531,"ha":531,"o":"m 440 139 l 421 0 l 29 0 l 29 22 q 171 209 248 323 q 324 438 324 496 q 324 525 303 544 q 282 564 251 564 q 203 564 106 502 l 125 639 q 192 691 277 691 q 361 691 414 639 q 466 587 466 509 q 466 444 429 373 q 392 303 270 139 z"},"{":{"x_min":0,"x_max":385,"ha":385,"o":"m 29 314 q 83 314 110 347 q 136 380 136 463 l 136 542 q 136 636 179 680 q 223 724 319 724 l 363 724 l 363 607 l 357 607 q 291 607 277 590 q 262 573 262 496 q 262 397 248 347 q 233 296 177 257 q 233 218 248 167 q 262 117 262 18 q 262 -59 277 -76 q 291 -93 357 -93 l 363 -93 l 363 -210 l 319 -210 q 223 -210 179 -166 q 136 -122 136 -28 l 136 51 q 136 134 110 167 q 83 200 29 200 z"},"9":{"x_min":0,"x_max":531,"ha":531,"o":"m 107 0 l 280 268 l 278 270 q 244 257 213 257 q 146 257 102 306 q 58 356 58 432 q 58 535 126 613 q 193 691 304 691 q 399 691 455 633 q 511 575 511 477 q 511 373 426 244 l 265 0 z m 268 375 q 313 375 341 412 q 369 448 369 491 q 369 522 349 543 q 329 564 299 564 q 261 564 230 527 q 200 489 200 441 q 200 411 219 393 q 237 375 268 375 z"}," ":{"x_min":0,"x_max":278,"ha":278,"o":""},"I":{"x_min":0,"x_max":302,"ha":302,"o":"m 286 682 l 190 0 l 45 0 l 141 682 z"},"H":{"x_min":0,"x_max":792,"ha":792,"o":"m 777 682 l 681 0 l 536 0 l 576 278 l 228 278 l 189 0 l 44 0 l 140 682 l 285 682 l 247 412 l 594 412 l 632 682 z"},"4":{"x_min":0,"x_max":531,"ha":531,"o":"m 478 691 l 416 250 l 490 250 l 477 157 l 403 157 l 381 0 l 240 0 l 262 157 l 29 157 l 29 271 l 365 691 z m 124 250 l 275 250 l 307 480 z"},"~":{"x_min":0,"x_max":584,"ha":584,"o":"m 29 175 l 29 306 q 115 378 189 378 q 233 378 315 339 q 397 300 434 300 q 495 300 580 374 l 580 244 q 548 213 503 192 q 458 172 422 172 q 379 172 294 211 q 210 251 181 251 q 118 251 29 175 z"},"D":{"x_min":0,"x_max":750,"ha":750,"o":"m 136 682 l 363 682 q 534 682 624 589 q 715 497 715 350 q 715 199 622 100 q 530 0 393 0 l 41 0 z m 265 568 l 202 114 l 338 114 q 445 114 505 181 q 565 248 565 352 q 565 448 503 508 q 441 568 335 568 z"},"^":{"x_min":0,"x_max":583,"ha":583,"o":"m 68 292 l 252 682 l 360 682 l 539 292 l 400 292 l 304 531 l 208 292 z"},"0":{"x_min":0,"x_max":531,"ha":531,"o":"m 320 691 q 407 691 456 623 q 506 555 506 434 q 506 268 431 130 q 356 -9 237 -9 q 151 -9 102 60 q 52 128 52 248 q 52 421 126 556 q 200 691 320 691 z m 248 118 q 299 118 332 248 q 364 378 364 474 q 364 518 349 541 q 334 564 311 564 q 258 564 226 446 q 194 328 194 211 q 194 118 248 118 z"},"F":{"x_min":0,"x_max":490,"ha":490,"o":"m 531 682 l 514 568 l 267 568 l 245 406 l 458 406 l 442 292 l 229 292 l 187 0 l 42 0 l 138 682 z"},"`":{"x_min":0,"x_max":333,"ha":333,"o":"m 301 504 l 228 504 l 51 676 l 212 676 z"},"k":{"x_min":0,"x_max":509,"ha":509,"o":"m 260 682 l 200 260 l 364 454 l 531 454 l 351 238 l 526 0 l 362 0 l 195 224 l 164 0 l 29 0 l 125 682 z"},"u":{"x_min":0,"x_max":552,"ha":552,"o":"m 521 454 l 457 0 l 321 0 l 330 51 q 259 -8 183 -8 q 119 -8 84 29 q 50 66 50 130 q 50 147 52 166 l 93 454 l 229 454 l 194 213 q 190 182 190 160 q 190 92 230 92 q 283 92 344 158 l 385 454 z"},"]":{"x_min":0,"x_max":375,"ha":375,"o":"m -47 -221 l -31 -107 l 99 -107 l 193 568 l 64 568 l 80 682 l 340 682 l 213 -221 z"},"U":{"x_min":0,"x_max":750,"ha":750,"o":"m 748 682 l 688 257 q 651 -9 374 -9 q 228 -9 150 57 q 72 123 72 240 q 72 266 76 294 l 132 682 l 277 682 l 222 296 q 219 276 219 259 q 219 189 262 153 q 305 117 374 117 q 444 117 489 156 q 535 195 545 269 l 603 682 z"},"o":{"x_min":0,"x_max":563,"ha":563,"o":"m 297 462 q 396 462 459 403 q 522 343 522 248 q 522 140 448 65 q 373 -9 264 -9 q 167 -9 101 55 q 35 118 35 210 q 35 313 112 387 q 189 462 297 462 z m 265 101 q 316 101 349 148 q 382 195 382 252 q 382 297 357 324 q 332 352 291 352 q 237 352 206 303 q 175 255 175 202 q 175 156 202 129 q 229 101 265 101 z"},"N":{"x_min":0,"x_max":781,"ha":781,"o":"m 767 682 l 672 0 l 534 0 l 252 462 l 188 0 l 43 0 l 139 682 l 284 682 l 561 237 l 622 682 z"},"+":{"x_min":0,"x_max":584,"ha":584,"o":"m 55 289 l 55 417 l 241 417 l 241 603 l 369 603 l 369 417 l 555 417 l 555 289 l 369 289 l 369 103 l 241 103 l 241 289 z"},"G":{"x_min":0,"x_max":740,"ha":740,"o":"m 737 666 l 720 540 q 628 565 539 565 q 388 565 293 492 q 198 419 198 304 q 198 216 257 167 q 316 117 415 117 q 467 117 517 130 l 534 251 l 409 251 l 424 359 l 694 359 l 645 11 q 564 -9 433 -9 q 248 -9 148 77 q 48 163 48 299 q 48 460 177 576 q 307 691 539 691 q 652 691 737 666 z"},"q":{"x_min":0,"x_max":552,"ha":552,"o":"m 521 460 l 424 -230 l 289 -230 l 326 31 q 253 -8 194 -8 q 123 -8 80 46 q 36 100 36 188 q 36 312 117 386 q 198 460 347 460 z m 339 124 l 370 346 q 357 347 346 347 q 266 347 220 306 q 174 265 174 191 q 174 146 196 119 q 217 92 253 92 q 296 92 339 124 z"},"d":{"x_min":0,"x_max":542,"ha":542,"o":"m 548 682 l 453 6 q 367 -9 297 -9 q 176 -9 105 50 q 34 109 34 209 q 34 314 111 388 q 187 462 316 462 q 337 462 382 457 l 413 682 z m 332 106 l 365 342 q 348 344 331 344 q 259 344 216 305 q 174 266 174 208 q 174 159 206 130 q 239 101 295 101 q 310 101 332 106 z"},"1":{"x_min":0,"x_max":531,"ha":531,"o":"m 399 682 l 303 0 l 162 0 l 258 682 z"},"5":{"x_min":0,"x_max":531,"ha":531,"o":"m 486 682 l 466 543 l 287 543 l 271 431 q 363 421 410 368 q 457 315 457 230 q 457 124 386 58 q 314 -9 200 -9 q 101 -9 23 42 l 63 169 q 136 118 198 118 q 249 118 282 147 q 315 175 315 219 q 315 265 280 292 q 245 319 185 319 q 148 319 108 313 l 170 682 z"}}}
